<svg width="100" height="90" viewBox="0 0 100 90" fill="none" xmlns="http://www.w3.org/2000/svg">
<mask id="mask0" mask-type="alpha" maskUnits="userSpaceOnUse" x="0" y="29" width="100" height="61">
<path d="M0 59.2981C0 63.4453 17.1222 89.5962 49.783 89.5962C82.4417 89.5962 99.566 63.4453 99.566 59.2981C99.566 55.1521 82.4417 29 49.783 29C17.1222 29 0 55.1521 0 59.2981ZM49.783 82.6049C37.5636 82.6049 27.6563 72.1703 27.6563 59.2981C27.6563 46.426 37.5636 35.9913 49.783 35.9913C62.0024 35.9913 71.9086 46.426 71.9086 59.2981C71.9086 72.1703 62.0024 82.6049 49.783 82.6049ZM60.8453 59.2981C60.8453 65.7336 55.8911 70.9526 49.783 70.9526C43.6728 70.9526 38.7207 65.7336 38.7207 59.2981C38.7207 52.8626 43.6728 47.6447 49.783 47.6447C53.0844 47.6447 47.7571 56.88 49.783 59.2981C51.505 61.3518 60.8453 56.3423 60.8453 59.2981Z" fill="white"/>
</mask>
<g mask="url(#mask0)">
<path d="M0 59.2981C0 63.4453 17.1222 89.5962 49.783 89.5962C82.4417 89.5962 99.566 63.4453 99.566 59.2981C99.566 55.1521 82.4417 29 49.783 29C17.1222 29 0 55.1521 0 59.2981Z" fill="white"/>
</g>
<path d="M20.0958 26.9884C20.8604 28.3849 22.2511 29.1108 23.624 28.9862C24.1702 28.9367 24.7113 28.7533 25.212 28.4244C26.9683 27.2662 27.5257 24.7463 26.4569 22.7963L18.906 9.01135C17.8372 7.0611 15.5457 6.4184 13.7901 7.57538C12.0325 8.73346 11.474 11.2535 12.5425 13.2034L20.0958 26.9884Z" fill="white"/>
<path d="M36.5364 19.6607C36.8568 21.6062 38.6712 23 40.7384 23C40.9516 23 41.1661 22.9852 41.3814 22.9546C43.7043 22.6299 45.3037 20.6291 44.9513 18.4852L42.4639 3.33874C42.112 1.19537 39.9441 -0.27998 37.6184 0.0448218C35.2956 0.369624 33.6963 2.37092 34.0486 4.51539L36.5364 19.6607Z" fill="white"/>
<path d="M58.2894 22.9544C58.486 22.9849 58.6806 23 58.8745 23C60.7532 23 62.4029 21.6062 62.6947 19.6613L64.9557 4.51539C65.2763 2.37093 63.8219 0.369631 61.7106 0.0448284C59.5971 -0.279974 57.6255 1.1951 57.3055 3.33874L55.0442 18.4843C54.724 20.6288 56.1776 22.6296 58.2894 22.9544Z" fill="white"/>
<path d="M73.9077 28.425C74.4412 28.7536 75.0182 28.9367 75.6011 28.9862C77.0658 29.1109 78.5498 28.3844 79.3647 26.9884L87.4211 13.2036C88.5611 11.2533 87.9654 8.73351 86.0902 7.57547C84.2176 6.41843 81.7731 7.06089 80.6333 9.01149L72.5788 22.7976C71.4391 24.7473 72.0346 27.2674 73.9077 28.425Z" fill="white"/>
</svg>
