<svg width="76" height="29" viewBox="0 0 76 29" fill="none" xmlns="http://www.w3.org/2000/svg">
<path id="1" d="M8.09582 26.9884C8.86042 28.3849 10.2511 29.1108 11.624 28.9862C12.1702 28.9367 12.7113 28.7533 13.212 28.4244C14.9683 27.2662 15.5257 24.7463 14.4569 22.7963L6.90602 9.01135C5.83719 7.0611 3.54572 6.4184 1.79011 7.57538C0.032502 8.73346 -0.526005 11.2535 0.54255 13.2034L8.09582 26.9884Z" fill="white"/>
<path id="2" d="M24.5364 19.6607C24.8568 21.6062 26.6712 23 28.7384 23C28.9516 23 29.1661 22.9852 29.3814 22.9546C31.7043 22.6299 33.3037 20.6291 32.9513 18.4852L30.4639 3.33874C30.112 1.19537 27.9441 -0.27998 25.6184 0.0448218C23.2956 0.369624 21.6963 2.37092 22.0486 4.51539L24.5364 19.6607Z" fill="white"/>
<path id="3" d="M46.2894 22.9544C46.486 22.9849 46.6806 23 46.8745 23C48.7532 23 50.4029 21.6062 50.6947 19.6613L52.9557 4.51539C53.2763 2.37093 51.8219 0.369631 49.7106 0.0448284C47.5971 -0.279974 45.6255 1.1951 45.3055 3.33874L43.0442 18.4843C42.724 20.6288 44.1776 22.6296 46.2894 22.9544Z" fill="white"/>
<path id="4" d="M61.9077 28.425C62.4412 28.7536 63.0182 28.9367 63.6011 28.9862C65.0658 29.1109 66.5498 28.3844 67.3647 26.9884L75.4211 13.2036C76.5611 11.2533 75.9654 8.73351 74.0902 7.57547C72.2176 6.41843 69.7731 7.06089 68.6333 9.01149L60.5788 22.7976C59.4391 24.7474 60.0346 27.2674 61.9077 28.425Z" fill="white"/>
</svg>
