<svg width="102" height="101" viewBox="0 0 102 101" fill="none" xmlns="http://www.w3.org/2000/svg">
          <mask id="mask0" mask-type="alpha" maskUnits="userSpaceOnUse" x="1" y="40" width="100" height="61">
          <path d="M1.2846 70.2981C1.2846 74.4453 18.4068 100.596 51.0676 100.596C83.7263 100.596 100.851 74.4453 100.851 70.2981C100.851 66.1521 83.7263 40 51.0676 40C18.4068 40 1.2846 66.1521 1.2846 70.2981ZM51.0676 93.6049C38.8482 93.6049 28.9409 83.1703 28.9409 70.2981C28.9409 57.426 38.8482 46.9913 51.0676 46.9913C63.287 46.9913 73.1932 57.426 73.1932 70.2981C73.1932 83.1703 63.287 93.6049 51.0676 93.6049ZM62.1299 70.2981C62.1299 76.7336 57.1757 81.9526 51.0676 81.9526C44.9574 81.9526 40.0053 76.7336 40.0053 70.2981C40.0053 63.8626 44.9574 58.6447 51.0676 58.6447C54.369 58.6447 49.0417 67.88 51.0676 70.2981C52.7896 72.3518 62.1299 67.3423 62.1299 70.2981Z" fill="white"/>
          </mask>
          <g mask="url(#mask0)">
          <path d="M1.2846 70.2981C1.2846 74.4453 18.4068 100.596 51.0676 100.596C83.7263 100.596 100.851 74.4453 100.851 70.2981C100.851 66.1521 83.7263 40 51.0676 40C18.4068 40 1.2846 66.1521 1.2846 70.2981Z" fill="white"/>
          </g>
          <path d="M11.7069 36.8419C12.7693 38.7123 14.7016 39.6846 16.6092 39.5177C17.3681 39.4513 18.12 39.2057 18.8157 38.7652C21.256 37.2139 22.0306 33.8389 20.5455 31.2271L10.0537 12.764C8.56859 10.1519 5.38465 9.29108 2.94527 10.8407C0.503111 12.3918 -0.272921 15.767 1.21181 18.3787L11.7069 36.8419Z" fill="white"/>
          <path d="M33.5662 27.5583C33.9556 30.2853 36.1603 32.2389 38.6723 32.2389C38.9314 32.2389 39.192 32.2181 39.4536 32.1753C42.2764 31.7201 44.2199 28.9157 43.7917 25.9106L40.7691 4.68022C40.3414 1.67592 37.7071 -0.392044 34.881 0.0632225C32.0585 0.518489 30.1151 3.32366 30.5432 6.3295L33.5662 27.5583Z" fill="white"/>
          <path d="M62.1767 32.1746C62.4394 32.2173 62.6996 32.2385 62.9588 32.2385C65.47 32.2385 67.6751 30.2849 68.0652 27.5587L71.0874 6.32911C71.5159 3.32327 69.5718 0.518102 66.7497 0.0628348C63.9247 -0.392432 61.2893 1.67514 60.8615 4.67983L57.8389 25.909C57.4108 28.9149 59.3539 31.7193 62.1767 32.1746Z" fill="white"/>
          <path d="M82.817 38.7648C83.512 39.2049 84.2636 39.4501 85.0229 39.5165C86.9308 39.6834 88.8639 38.7104 89.9255 36.8407L100.42 18.3783C101.905 15.7662 101.129 12.3913 98.6863 10.8403C96.247 9.29063 93.0627 10.1511 91.5779 12.7636L81.086 31.2278C79.6013 33.8392 80.377 37.2144 82.817 38.7648Z" fill="white"/>
      </svg>